STARTFONT 2.1
FONT -FontForge-Silom-Bold-R-Normal--24-240-75-75-P-128-ISO10646-1
SIZE 24 75 75
FONTBOUNDINGBOX 66 23 0 -5
COMMENT "Generated by fontforge, http://fontforge.sourceforge.net"
COMMENT "Copyright (c) Tom Tor, 2000. All rights reserved. www.tomtor.com"
STARTPROPERTIES 39
FOUNDRY "FontForge"
FAMILY_NAME "Silom"
WEIGHT_NAME "Bold"
SLANT "R"
SETWIDTH_NAME "Normal"
ADD_STYLE_NAME ""
PIXEL_SIZE 24
POINT_SIZE 240
RESOLUTION_X 75
RESOLUTION_Y 75
SPACING "P"
AVERAGE_WIDTH 128
CHARSET_REGISTRY "ISO10646"
CHARSET_ENCODING "1"
FONTNAME_REGISTRY ""
CHARSET_COLLECTIONS "ISO10646-1"
FONT_NAME "Silom-Bold"
FACE_NAME "Silom Bold"
COPYRIGHT "Copyright (c) Tom Tor, 2000. All rights reserved. www.tomtor.com"
FONT_VERSION "1.00"
FONT_ASCENT 19
FONT_DESCENT 5
UNDERLINE_POSITION -2
UNDERLINE_THICKNESS 2
X_HEIGHT 10
CAP_HEIGHT 15
RAW_ASCENT 800
RAW_DESCENT 200
NORM_SPACE 12
RELATIVE_WEIGHT 70
RELATIVE_SETWIDTH 50
SUPERSCRIPT_X 0
SUPERSCRIPT_Y 11
SUPERSCRIPT_SIZE 15
SUBSCRIPT_X 0
SUBSCRIPT_Y 3
SUBSCRIPT_SIZE 15
AVG_LOWERCASE_WIDTH 121
AVG_UPPERCASE_WIDTH 127
ENDPROPERTIES
CHARS 113
STARTCHAR caron
ENCODING 12
SWIDTH 2880 0
DWIDTH 69 0
BBX 66 16 0 0
BITMAP
380000000700000000
380000000700000000
380000000700000000
380000000700000000
380000000700000180
FEFC3FFF9FCFC3BB40
FFFFBFFFDFDFF3FBC0
FFFFBFFFDFDFF3FA40
39C3B871C71C73C180
39C3B871C71C738000
39C3B871C71C738000
39C3B871C71C738000
39C3B871C71C738000
3FFFB871C7DFF38000
3EFC3871C7CFC38000
0EFC3871C1CFC38000
ENDCHAR
STARTCHAR space
ENCODING 32
SWIDTH 500 0
DWIDTH 12 0
BBX 1 1 0 0
BITMAP
00
ENDCHAR
STARTCHAR exclam
ENCODING 33
SWIDTH 275 0
DWIDTH 7 0
BBX 4 16 0 0
BITMAP
F0
F0
F0
F0
F0
F0
F0
F0
F0
F0
F0
F0
00
00
F0
F0
ENDCHAR
STARTCHAR quotedbl
ENCODING 34
SWIDTH 591 0
DWIDTH 15 0
BBX 12 7 0 9
BITMAP
3CF0
3CF0
F3C0
F3C0
F3C0
F3C0
F3C0
ENDCHAR
STARTCHAR numbersign
ENCODING 35
SWIDTH 650 0
DWIDTH 16 0
BBX 13 16 0 0
BITMAP
3DE0
3DE0
3DE0
3DE0
3DE0
FFF8
FFF8
3DE0
3DE0
FFF8
FFF8
3DE0
3DE0
3DE0
3DE0
3DE0
ENDCHAR
STARTCHAR dollar
ENCODING 36
SWIDTH 575 0
DWIDTH 14 0
BBX 11 16 0 0
BITMAP
1E00
1E00
7FE0
7FE0
7FE0
E000
E000
E000
7F80
7F80
01E0
01E0
FF80
FF80
FF80
1E00
ENDCHAR
STARTCHAR percent
ENCODING 37
SWIDTH 661 0
DWIDTH 16 0
BBX 13 16 0 0
BITMAP
30E0
30E0
D8E0
D8E0
3780
3780
0780
0780
0F00
0F00
0F60
0F60
3898
3898
3860
3860
ENDCHAR
STARTCHAR ampersand
ENCODING 38
SWIDTH 714 0
DWIDTH 17 0
BBX 15 16 0 0
BITMAP
3FC0
3FC0
F0F0
F0F0
73D0
3FC0
3FC0
3F0E
3F0E
F3CE
F3CE
F0F0
F0F0
3FCE
3FCE
3FCE
ENDCHAR
STARTCHAR quotesingle
ENCODING 39
SWIDTH 350 0
DWIDTH 8 0
BBX 6 7 0 9
BITMAP
3C
3C
F0
F0
F0
F0
F0
ENDCHAR
STARTCHAR parenleft
ENCODING 40
SWIDTH 425 0
DWIDTH 10 0
BBX 8 20 0 -2
BITMAP
0F
0F
3C
3C
F0
F0
F0
F0
F0
F0
F0
F0
F0
F0
F0
F0
3C
3C
0F
0F
ENDCHAR
STARTCHAR parenright
ENCODING 41
SWIDTH 425 0
DWIDTH 10 0
BBX 8 20 0 -2
BITMAP
F0
F0
3C
3C
0F
0F
0F
0F
0F
0F
0F
0F
0F
0F
0F
0F
3C
3C
F0
F0
ENDCHAR
STARTCHAR asterisk
ENCODING 42
SWIDTH 535 0
DWIDTH 13 0
BBX 10 11 0 5
BITMAP
CEC0
CEC0
CEC0
3F00
3F00
FFC0
FFC0
3F00
3F00
CEC0
CEC0
ENDCHAR
STARTCHAR plus
ENCODING 43
SWIDTH 350 0
DWIDTH 8 0
BBX 6 6 0 4
BITMAP
30
30
FC
FC
30
30
ENDCHAR
STARTCHAR comma
ENCODING 44
SWIDTH 350 0
DWIDTH 8 0
BBX 6 7 0 -3
BITMAP
3C
3C
3C
3C
3C
F0
F0
ENDCHAR
STARTCHAR hyphen
ENCODING 45
SWIDTH 500 0
DWIDTH 12 0
BBX 9 4 0 4
BITMAP
FF80
FF80
FF80
FF80
ENDCHAR
STARTCHAR period
ENCODING 46
SWIDTH 275 0
DWIDTH 7 0
BBX 4 4 0 0
BITMAP
F0
F0
F0
F0
ENDCHAR
STARTCHAR slash
ENCODING 47
SWIDTH 536 0
DWIDTH 13 0
BBX 10 16 0 0
BITMAP
03C0
03C0
03C0
03C0
0F00
0F00
0F00
0F00
3C00
3C00
3C00
3C00
F000
F000
F000
F000
ENDCHAR
STARTCHAR zero
ENCODING 48
SWIDTH 515 0
DWIDTH 12 0
BBX 9 16 0 0
BITMAP
7E00
7E00
FF80
E380
E380
E380
E380
E380
E380
E380
E380
E380
E380
FF80
FF80
7E00
ENDCHAR
STARTCHAR one
ENCODING 49
SWIDTH 395 0
DWIDTH 9 0
BBX 6 16 0 0
BITMAP
1C
1C
7C
7C
FC
FC
FC
1C
1C
1C
1C
1C
1C
1C
1C
1C
ENDCHAR
STARTCHAR two
ENCODING 50
SWIDTH 530 0
DWIDTH 13 0
BBX 9 16 1 0
BITMAP
7F00
7F00
FF80
E380
E380
0380
0780
0780
1F00
1F00
7C00
F800
F800
FF80
FF80
FF80
ENDCHAR
STARTCHAR three
ENCODING 51
SWIDTH 530 0
DWIDTH 13 0
BBX 10 16 0 0
BITMAP
3F80
3F80
FFC0
E1C0
E1C0
01C0
01C0
1F80
1FC0
1FC0
01C0
E1C0
E1C0
FFC0
3F80
3F80
ENDCHAR
STARTCHAR four
ENCODING 52
SWIDTH 530 0
DWIDTH 13 0
BBX 10 16 0 0
BITMAP
0700
0700
1F00
1F00
1F00
3F00
3F00
2700
E700
E700
FFC0
FFC0
FFC0
0700
0700
0700
ENDCHAR
STARTCHAR five
ENCODING 53
SWIDTH 530 0
DWIDTH 13 0
BBX 10 16 0 0
BITMAP
FFC0
FFC0
FFC0
E000
E000
FF00
FF00
FFC0
01C0
01C0
01C0
E1C0
E1C0
FFC0
3F80
3F80
ENDCHAR
STARTCHAR six
ENCODING 54
SWIDTH 515 0
DWIDTH 12 0
BBX 9 16 0 0
BITMAP
7E00
7E00
FF80
E000
E000
FE00
FE00
FF80
E380
E380
E380
E380
E380
FF80
FF80
7E00
ENDCHAR
STARTCHAR seven
ENCODING 55
SWIDTH 515 0
DWIDTH 12 0
BBX 9 16 0 0
BITMAP
FF80
FF80
FF80
0380
0780
0700
0700
0700
1C00
1C00
1C00
1C00
1C00
1C00
1C00
1C00
ENDCHAR
STARTCHAR eight
ENCODING 56
SWIDTH 515 0
DWIDTH 12 0
BBX 9 16 0 0
BITMAP
7F00
7F00
FF80
E380
E380
E380
E380
7F00
FF80
FF80
E380
E380
E380
FF80
FF80
7F00
ENDCHAR
STARTCHAR nine
ENCODING 57
SWIDTH 569 0
DWIDTH 14 0
BBX 10 16 1 0
BITMAP
3F00
3F00
FFC0
E1C0
E1C0
E1C0
E1C0
FFC0
3FC0
3FC0
01C0
E1C0
E1C0
FFC0
3F00
3F00
ENDCHAR
STARTCHAR colon
ENCODING 58
SWIDTH 275 0
DWIDTH 7 0
BBX 4 11 0 0
BITMAP
F0
F0
F0
F0
00
00
00
F0
F0
F0
F0
ENDCHAR
STARTCHAR semicolon
ENCODING 59
SWIDTH 350 0
DWIDTH 8 0
BBX 6 14 0 -3
BITMAP
3C
3C
3C
3C
00
00
00
3C
3C
3C
3C
3C
F0
F0
ENDCHAR
STARTCHAR less
ENCODING 60
SWIDTH 435 0
DWIDTH 10 0
BBX 8 11 0 2
BITMAP
0F
0F
0F
3C
3C
F0
F0
3C
3C
0F
0F
ENDCHAR
STARTCHAR equal
ENCODING 61
SWIDTH 604 0
DWIDTH 15 0
BBX 11 10 0 4
BITMAP
FFE0
FFE0
FFE0
FFE0
0000
0000
FFE0
FFE0
FFE0
FFE0
ENDCHAR
STARTCHAR greater
ENCODING 62
SWIDTH 435 0
DWIDTH 10 0
BBX 8 11 0 2
BITMAP
F0
F0
F0
3C
3C
0F
0F
3C
3C
F0
F0
ENDCHAR
STARTCHAR question
ENCODING 63
SWIDTH 500 0
DWIDTH 12 0
BBX 12 16 1 0
BITMAP
3F80
3F80
F0F0
F0F0
F0F0
00F0
00F0
00F0
0780
0780
1F00
0E00
0000
0000
1F00
0E00
ENDCHAR
STARTCHAR at
ENCODING 64
SWIDTH 725 0
DWIDTH 17 0
BBX 16 16 0 0
BITMAP
0FE0
0FE0
0FF0
3C7C
3C3C
F3CF
F38F
F78F
FCFF
FCFF
F3DC
F3CC
3C00
3C00
0FF0
0FE0
ENDCHAR
STARTCHAR A
ENCODING 65
SWIDTH 530 0
DWIDTH 13 0
BBX 10 16 0 0
BITMAP
3F00
FFC0
FFC0
E1C0
E1C0
E1C0
E1C0
E1C0
E1C0
E1C0
FFC0
FFC0
FFC0
E1C0
E1C0
E1C0
ENDCHAR
STARTCHAR B
ENCODING 66
SWIDTH 530 0
DWIDTH 12 0
BBX 9 16 0 0
BITMAP
FF00
FF00
FF80
E380
E380
E380
E380
FF00
FF80
FF80
E380
E380
E380
FF80
FF80
FF00
ENDCHAR
STARTCHAR C
ENCODING 67
SWIDTH 530 0
DWIDTH 13 0
BBX 9 16 0 0
BITMAP
3F00
FF80
FF80
E000
E000
E000
E000
E000
E000
E000
E000
E000
E000
FF80
FF80
3F00
ENDCHAR
STARTCHAR D
ENCODING 68
SWIDTH 530 0
DWIDTH 13 0
BBX 10 16 0 0
BITMAP
FF80
FFC0
FFC0
E1C0
E1C0
E1C0
E1C0
E1C0
E1C0
E1C0
E1C0
E1C0
E1C0
FFC0
FFC0
FF80
ENDCHAR
STARTCHAR E
ENCODING 69
SWIDTH 530 0
DWIDTH 13 0
BBX 9 16 0 0
BITMAP
FF80
FF80
FF80
E000
E000
E000
E000
FC00
FC00
FC00
E000
E000
E000
FF80
FF80
FF80
ENDCHAR
STARTCHAR F
ENCODING 70
SWIDTH 530 0
DWIDTH 13 0
BBX 9 16 0 0
BITMAP
FF80
FF80
FF80
E000
E000
E000
E000
FF00
FF00
FF00
E000
E000
E000
E000
E000
E000
ENDCHAR
STARTCHAR G
ENCODING 71
SWIDTH 515 0
DWIDTH 13 0
BBX 10 16 0 0
BITMAP
3F00
FFC0
FFC0
E000
E000
E000
E000
E7C0
E7C0
E7C0
E1C0
E1C0
E1C0
FFC0
FFC0
3FC0
ENDCHAR
STARTCHAR H
ENCODING 72
SWIDTH 515 0
DWIDTH 12 0
BBX 9 16 0 0
BITMAP
E380
E380
E380
E380
E380
E380
E380
FF80
FF80
FF80
E380
E380
E380
E380
E380
E380
ENDCHAR
STARTCHAR I
ENCODING 73
SWIDTH 245 0
DWIDTH 6 0
BBX 3 16 0 0
BITMAP
E0
E0
E0
E0
E0
E0
E0
E0
E0
E0
E0
E0
E0
E0
E0
E0
ENDCHAR
STARTCHAR J
ENCODING 74
SWIDTH 455 0
DWIDTH 11 0
BBX 8 16 0 0
BITMAP
07
07
07
07
07
07
07
07
07
07
07
07
07
FF
FF
FE
ENDCHAR
STARTCHAR K
ENCODING 75
SWIDTH 515 0
DWIDTH 13 0
BBX 10 16 0 0
BITMAP
E1C0
E7C0
E7C0
FF80
FF80
FE00
FE00
F800
F800
F800
FE00
FF80
FF80
E7C0
E7C0
E1C0
ENDCHAR
STARTCHAR L
ENCODING 76
SWIDTH 455 0
DWIDTH 11 0
BBX 8 16 0 0
BITMAP
E0
E0
E0
E0
E0
E0
E0
E0
E0
E0
E0
E0
E0
FF
FF
FF
ENDCHAR
STARTCHAR M
ENCODING 77
SWIDTH 665 0
DWIDTH 16 0
BBX 13 16 0 0
BITMAP
E038
F8F8
F8F8
FFF8
FFF8
FFF8
FFF8
E738
E038
E038
E038
E038
E038
E038
E038
E038
ENDCHAR
STARTCHAR N
ENCODING 78
SWIDTH 530 0
DWIDTH 13 0
BBX 10 16 0 0
BITMAP
E1C0
E1C0
E1C0
F9C0
F9C0
F9C0
FFC0
FFC0
FFC0
FFC0
E7C0
E7C0
E7C0
E1C0
E1C0
E1C0
ENDCHAR
STARTCHAR O
ENCODING 79
SWIDTH 530 0
DWIDTH 13 0
BBX 10 16 0 0
BITMAP
3F00
FFC0
FFC0
E1C0
E1C0
E1C0
E1C0
E1C0
E1C0
E1C0
E1C0
E1C0
E1C0
FFC0
FFC0
3F00
ENDCHAR
STARTCHAR P
ENCODING 80
SWIDTH 530 0
DWIDTH 13 0
BBX 10 16 0 0
BITMAP
FF00
FFC0
FFC0
E1C0
E1C0
E1C0
E1C0
E1C0
FFC0
FFC0
FF00
E000
E000
E000
E000
E000
ENDCHAR
STARTCHAR Q
ENCODING 81
SWIDTH 530 0
DWIDTH 13 0
BBX 10 18 0 -2
BITMAP
3F00
FFC0
FFC0
E1C0
E1C0
E1C0
E1C0
E1C0
E1C0
E1C0
E1C0
E7C0
E7C0
FFC0
FFC0
3F00
07C0
07C0
ENDCHAR
STARTCHAR R
ENCODING 82
SWIDTH 530 0
DWIDTH 13 0
BBX 10 16 0 0
BITMAP
FF00
FFC0
FFC0
E1C0
E1C0
E1C0
E1C0
E1C0
FF00
FF00
FFC0
E1C0
E1C0
E1C0
E1C0
E1C0
ENDCHAR
STARTCHAR S
ENCODING 83
SWIDTH 530 0
DWIDTH 13 0
BBX 10 16 0 0
BITMAP
3F00
FFC0
FFC0
E000
E000
E000
E000
FF00
3FC0
3FC0
01C0
01C0
01C0
FFC0
FFC0
3F00
ENDCHAR
STARTCHAR T
ENCODING 84
SWIDTH 530 0
DWIDTH 13 0
BBX 9 16 0 0
BITMAP
FF80
FF80
FF80
1C00
1C00
1C00
1C00
1C00
1C00
1C00
1C00
1C00
1C00
1C00
1C00
1C00
ENDCHAR
STARTCHAR U
ENCODING 85
SWIDTH 530 0
DWIDTH 13 0
BBX 10 16 0 0
BITMAP
E1C0
E1C0
E1C0
E1C0
E1C0
E1C0
E1C0
E1C0
E1C0
E1C0
E1C0
E1C0
E1C0
FFC0
FFC0
3F00
ENDCHAR
STARTCHAR V
ENCODING 86
SWIDTH 530 0
DWIDTH 13 0
BBX 9 16 0 0
BITMAP
E380
E380
E380
E380
E380
E380
E380
E380
E380
E380
3E00
3E00
3E00
1C00
1C00
1C00
ENDCHAR
STARTCHAR W
ENCODING 87
SWIDTH 725 0
DWIDTH 17 0
BBX 14 16 0 0
BITMAP
E01C
E01C
E01C
E01C
E01C
FB3C
FB3C
3B38
3FF8
3FF8
3FF8
3CE0
3CE0
1CE0
1CE0
1CE0
ENDCHAR
STARTCHAR X
ENCODING 88
SWIDTH 515 0
DWIDTH 12 0
BBX 9 16 0 0
BITMAP
E380
E380
E380
7F00
7F00
7F00
1C00
1C00
1C00
1C00
7F00
7F00
7F00
E380
E380
E380
ENDCHAR
STARTCHAR Y
ENCODING 89
SWIDTH 500 0
DWIDTH 12 0
BBX 9 16 2 0
BITMAP
E380
E380
E380
E380
E380
E380
FF80
7F00
7F00
7F00
1C00
1C00
1C00
1C00
1C00
1C00
ENDCHAR
STARTCHAR Z
ENCODING 90
SWIDTH 582 0
DWIDTH 14 0
BBX 10 16 1 0
BITMAP
FFC0
FFC0
FFC0
0700
0700
0700
0E00
0E00
0E00
0E00
3800
3800
3800
7FC0
7FC0
7FC0
ENDCHAR
STARTCHAR bracketleft
ENCODING 91
SWIDTH 370 0
DWIDTH 9 0
BBX 6 20 0 -2
BITMAP
FC
FC
F0
F0
F0
F0
F0
F0
F0
F0
F0
F0
F0
F0
F0
F0
F0
F0
FC
FC
ENDCHAR
STARTCHAR backslash
ENCODING 92
SWIDTH 401 0
DWIDTH 10 0
BBX 4 17 1 0
BITMAP
F0
F0
F0
F0
F0
F0
F0
F0
F0
F0
F0
F0
F0
F0
F0
F0
F0
ENDCHAR
STARTCHAR bracketright
ENCODING 93
SWIDTH 370 0
DWIDTH 9 0
BBX 6 20 0 -2
BITMAP
FC
FC
3C
3C
3C
3C
3C
3C
3C
3C
3C
3C
3C
3C
3C
3C
3C
3C
FC
FC
ENDCHAR
STARTCHAR asciicircum
ENCODING 94
SWIDTH 500 0
DWIDTH 12 0
BBX 10 7 0 9
BITMAP
0C00
0C00
3F00
3F00
3F00
F3C0
F3C0
ENDCHAR
STARTCHAR underscore
ENCODING 95
SWIDTH 575 0
DWIDTH 14 0
BBX 11 2 0 -2
BITMAP
FFE0
FFE0
ENDCHAR
STARTCHAR grave
ENCODING 96
SWIDTH 350 0
DWIDTH 8 0
BBX 6 7 0 9
BITMAP
F0
F0
3C
3C
3C
3C
3C
ENDCHAR
STARTCHAR a
ENCODING 97
SWIDTH 530 0
DWIDTH 13 0
BBX 10 11 0 0
BITMAP
3FC0
3FC0
FFC0
E1C0
E1C0
E1C0
E1C0
E1C0
FFC0
FFC0
3FC0
ENDCHAR
STARTCHAR b
ENCODING 98
SWIDTH 530 0
DWIDTH 13 0
BBX 10 16 0 0
BITMAP
E000
E000
E000
E000
E000
FF00
FF00
FFC0
E1C0
E1C0
E1C0
E1C0
E1C0
FFC0
FFC0
FF00
ENDCHAR
STARTCHAR c
ENCODING 99
SWIDTH 470 0
DWIDTH 11 0
BBX 9 11 0 0
BITMAP
3E00
3E00
FF80
E000
E000
E000
E000
E000
FF80
FF80
3E00
ENDCHAR
STARTCHAR d
ENCODING 100
SWIDTH 530 0
DWIDTH 13 0
BBX 10 16 0 0
BITMAP
01C0
01C0
01C0
01C0
01C0
3FC0
3FC0
FFC0
E1C0
E1C0
E1C0
E1C0
E1C0
FFC0
FFC0
3FC0
ENDCHAR
STARTCHAR e
ENCODING 101
SWIDTH 530 0
DWIDTH 13 0
BBX 9 11 0 0
BITMAP
7F00
7F00
FF80
E380
E380
FF80
FF80
E000
FF80
FF80
7F00
ENDCHAR
STARTCHAR f
ENCODING 102
SWIDTH 455 0
DWIDTH 11 0
BBX 8 16 0 0
BITMAP
1F
1F
3F
38
38
FE
FE
FE
38
38
38
38
38
38
38
38
ENDCHAR
STARTCHAR g
ENCODING 103
SWIDTH 530 0
DWIDTH 13 0
BBX 10 14 0 -3
BITMAP
3FC0
3FC0
FFC0
E1C0
E1C0
E1C0
FFC0
FFC0
3FC0
01C0
01C0
3FC0
3FC0
1F00
ENDCHAR
STARTCHAR h
ENCODING 104
SWIDTH 530 0
DWIDTH 13 0
BBX 10 16 0 0
BITMAP
E000
E000
E000
E000
E000
FF00
FF00
FFC0
E1C0
E1C0
E1C0
E1C0
E1C0
E1C0
E1C0
E1C0
ENDCHAR
STARTCHAR i
ENCODING 105
SWIDTH 260 0
DWIDTH 6 0
BBX 3 16 0 0
BITMAP
E0
E0
E0
00
00
E0
E0
E0
E0
E0
E0
E0
E0
E0
E0
E0
ENDCHAR
STARTCHAR j
ENCODING 106
SWIDTH 380 0
DWIDTH 9 0
BBX 6 19 0 -3
BITMAP
1C
1C
1C
00
00
1C
1C
1C
1C
1C
1C
1C
1C
1C
1C
1C
FC
FC
F8
ENDCHAR
STARTCHAR k
ENCODING 107
SWIDTH 515 0
DWIDTH 13 0
BBX 10 16 0 0
BITMAP
E000
E000
E000
E000
E000
E1C0
E180
E780
FF00
FE00
FE00
FF80
FF80
E7C0
E7C0
E1C0
ENDCHAR
STARTCHAR l
ENCODING 108
SWIDTH 260 0
DWIDTH 6 0
BBX 3 16 0 0
BITMAP
E0
E0
E0
E0
E0
E0
E0
E0
E0
E0
E0
E0
E0
E0
E0
E0
ENDCHAR
STARTCHAR m
ENCODING 109
SWIDTH 785 0
DWIDTH 19 0
BBX 16 11 0 0
BITMAP
FFFE
FFFE
FFFF
E1C7
E1C7
E1C7
E1C7
E1C7
E1C7
E1C7
E1C7
ENDCHAR
STARTCHAR n
ENCODING 110
SWIDTH 530 0
DWIDTH 13 0
BBX 10 11 0 0
BITMAP
FF00
FF00
FFC0
E1C0
E1C0
E1C0
E1C0
E1C0
E1C0
E1C0
E1C0
ENDCHAR
STARTCHAR o
ENCODING 111
SWIDTH 530 0
DWIDTH 13 0
BBX 10 11 0 0
BITMAP
7E00
7E00
FFC0
E1C0
E1C0
E1C0
E1C0
E1C0
FFC0
FFC0
7E00
ENDCHAR
STARTCHAR p
ENCODING 112
SWIDTH 530 0
DWIDTH 13 0
BBX 10 14 0 -3
BITMAP
FF00
FF00
FFC0
E1C0
E1C0
E1C0
E1C0
E1C0
FFC0
FFC0
FF00
E000
E000
E000
ENDCHAR
STARTCHAR q
ENCODING 113
SWIDTH 530 0
DWIDTH 13 0
BBX 10 14 0 -3
BITMAP
3FC0
3FC0
FFC0
E1C0
E1C0
E1C0
E1C0
E1C0
FFC0
FFC0
3FC0
01C0
01C0
01C0
ENDCHAR
STARTCHAR r
ENCODING 114
SWIDTH 455 0
DWIDTH 11 0
BBX 8 11 0 0
BITMAP
E7
E7
FF
F8
E0
E0
E0
E0
E0
E0
E0
ENDCHAR
STARTCHAR s
ENCODING 115
SWIDTH 455 0
DWIDTH 11 0
BBX 8 11 0 0
BITMAP
7F
7F
FF
E0
7C
7C
0F
0F
FF
FC
FC
ENDCHAR
STARTCHAR t
ENCODING 116
SWIDTH 395 0
DWIDTH 9 0
BBX 7 16 0 0
BITMAP
38
38
38
38
38
FE
FE
FE
38
38
38
38
38
3E
3E
0E
ENDCHAR
STARTCHAR u
ENCODING 117
SWIDTH 530 0
DWIDTH 13 0
BBX 10 11 0 0
BITMAP
E1C0
E1C0
E1C0
E1C0
E1C0
E1C0
E1C0
E1C0
FFC0
FFC0
3FC0
ENDCHAR
STARTCHAR v
ENCODING 118
SWIDTH 530 0
DWIDTH 13 0
BBX 9 11 0 0
BITMAP
E380
E380
E380
E380
E380
3F00
3F00
3F00
1C00
1C00
1C00
ENDCHAR
STARTCHAR w
ENCODING 119
SWIDTH 650 0
DWIDTH 16 0
BBX 13 11 0 0
BITMAP
E038
E038
E038
E738
E738
E738
FFF8
FFF8
3FE0
3FE0
38E0
ENDCHAR
STARTCHAR x
ENCODING 120
SWIDTH 530 0
DWIDTH 13 0
BBX 9 11 0 0
BITMAP
E380
E380
E380
3E00
3E00
1C00
3E00
3E00
E380
E380
E380
ENDCHAR
STARTCHAR y
ENCODING 121
SWIDTH 515 0
DWIDTH 12 0
BBX 9 14 0 -3
BITMAP
E380
E380
E380
E380
E380
E380
FF80
7F80
7F80
0380
0380
7F80
7F80
1F00
ENDCHAR
STARTCHAR z
ENCODING 122
SWIDTH 500 0
DWIDTH 12 0
BBX 9 11 2 0
BITMAP
FF80
FF80
FF80
0E00
0E00
1C00
3000
3000
FF80
FF80
FF80
ENDCHAR
STARTCHAR braceleft
ENCODING 123
SWIDTH 425 0
DWIDTH 10 0
BBX 8 20 0 -2
BITMAP
0F
0F
3C
3C
3C
3C
3C
3C
3C
F0
F0
3C
3C
3C
3C
3C
3C
3C
0F
0F
ENDCHAR
STARTCHAR bar
ENCODING 124
SWIDTH 290 0
DWIDTH 7 0
BBX 4 18 0 -1
BITMAP
F0
F0
F0
F0
F0
F0
F0
F0
F0
F0
F0
F0
F0
F0
F0
F0
F0
F0
ENDCHAR
STARTCHAR braceright
ENCODING 125
SWIDTH 425 0
DWIDTH 10 0
BBX 8 20 0 -2
BITMAP
F0
F0
3C
3C
3C
3C
3C
3C
3C
0F
0F
3C
3C
3C
3C
3C
3C
3C
F0
F0
ENDCHAR
STARTCHAR space.dup1
ENCODING 160
SWIDTH 500 0
DWIDTH 12 0
BBX 1 1 0 0
BITMAP
00
ENDCHAR
STARTCHAR cent
ENCODING 162
SWIDTH 520 0
DWIDTH 12 0
BBX 10 16 0 0
BITMAP
0C00
0C00
0C00
3F00
3F00
F3C0
F3C0
F000
F000
F000
F3C0
F3C0
3F00
3F00
0C00
0C00
ENDCHAR
STARTCHAR sterling
ENCODING 163
SWIDTH 575 0
DWIDTH 14 0
BBX 11 15 0 0
BITMAP
3E00
3E80
F780
F780
F000
F000
FE00
FE00
F000
F000
F000
F1E0
F1E0
FF80
FF80
ENDCHAR
STARTCHAR section
ENCODING 167
SWIDTH 500 0
DWIDTH 12 0
BBX 9 15 0 0
BITMAP
3F00
3F00
F000
F000
B200
3E00
7F00
F780
F780
3E00
3E00
0780
0780
7E00
7E00
ENDCHAR
STARTCHAR copyright
ENCODING 169
SWIDTH 762 0
DWIDTH 18 0
BBX 15 16 0 0
BITMAP
3FF8
3FF8
C006
C006
C006
CFE6
CFE6
CC06
CC06
CC06
CFE6
CFE6
C006
C006
3FF8
3FF8
ENDCHAR
STARTCHAR registered
ENCODING 174
SWIDTH 820 0
DWIDTH 20 0
BBX 16 16 1 0
BITMAP
3FFC
3FFC
C003
C003
C003
C7E3
C7E3
C783
C783
C783
C663
C663
C003
C003
3FFC
3FFC
ENDCHAR
STARTCHAR germandbls
ENCODING 223
SWIDTH 575 0
DWIDTH 14 0
BBX 11 18 0 -2
BITMAP
0FC0
0FC0
3DE0
3DE0
3DE0
F1E0
F1E0
F1E0
F3C0
F3C0
F1E0
F1E0
F1E0
F1E0
F3C0
F3C0
F000
F000
ENDCHAR
STARTCHAR florin
ENCODING 402
SWIDTH 425 0
DWIDTH 10 0
BBX 8 21 0 -5
BITMAP
0F
0F
3C
3C
3C
3C
FF
FF
3C
3C
3C
3C
3C
3C
3C
3C
3C
3C
3C
F0
F0
ENDCHAR
STARTCHAR endash
ENCODING 8211
SWIDTH 604 0
DWIDTH 15 0
BBX 11 4 0 4
BITMAP
FFE0
FFE0
FFE0
FFE0
ENDCHAR
STARTCHAR emdash
ENCODING 8212
SWIDTH 1126 0
DWIDTH 27 0
BBX 24 4 0 4
BITMAP
FFFFFF
FFFFFF
FFFFFF
FFFFFF
ENDCHAR
STARTCHAR quotesinglbase
ENCODING 8218
SWIDTH 350 0
DWIDTH 8 0
BBX 6 7 0 -3
BITMAP
3C
3C
3C
3C
3C
F0
F0
ENDCHAR
STARTCHAR quotedblbase
ENCODING 8222
SWIDTH 591 0
DWIDTH 15 0
BBX 12 7 0 -3
BITMAP
3CF0
3CF0
3CF0
3CF0
3CF0
F3C0
F3C0
ENDCHAR
STARTCHAR ellipsis
ENCODING 8230
SWIDTH 785 0
DWIDTH 19 0
BBX 16 4 0 0
BITMAP
F3CF
F3CF
F3CF
F3CF
ENDCHAR
STARTCHAR trademark
ENCODING 8482
SWIDTH 855 0
DWIDTH 21 0
BBX 17 6 0 9
BITMAP
FE6600
F6EA00
319980
319980
319980
319980
ENDCHAR
STARTCHAR .notdef
ENCODING -1
SWIDTH 500 0
DWIDTH 12 0
BBX 1 1 0 0
BITMAP
00
ENDCHAR
STARTCHAR .null
ENCODING -1
SWIDTH 0 0
DWIDTH 0 0
BBX 1 1 0 0
BITMAP
00
ENDCHAR
STARTCHAR nonmarkingreturn
ENCODING -1
SWIDTH 500 0
DWIDTH 12 0
BBX 1 1 0 0
BITMAP
00
ENDCHAR
STARTCHAR infinity
ENCODING -1
SWIDTH 815 0
DWIDTH 20 0
BBX 17 6 0 4
BITMAP
3E7E00
3E7E00
F3E780
F3E780
3E7E00
3E7E00
ENDCHAR
ENDFONT
